<svg xmlns="http://www.w3.org/2000/svg" xmlns:svg="http://www.w3.org/2000/svg" xmlns:xlink="http://www.w3.org/1999/xlink" id="svg2" width="1235" height="650" version="1.0"><desc id="desc4">United States Flag</desc><defs id="defs6"><polygon id="point" points="-.162 0 0 .5 .162 0 -.162 0" transform="scale(6.16e-2,6.16e-2)"/><g id="star"><use id="use10" width="1235" height="650" x="0" y="0" transform="matrix(-0.309017,-0.951057,0.951057,-0.309017,0,0)" xlink:href="#point"/><use id="use12" width="1235" height="650" x="0" y="0" transform="matrix(0.809017,-0.587785,0.587785,0.809017,0,0)" xlink:href="#point"/><use id="use14" width="1235" height="650" x="0" y="0" transform="matrix(0.809017,0.587785,-0.587785,0.809017,0,0)" xlink:href="#point"/><use id="use16" width="1235" height="650" x="0" y="0" transform="matrix(-0.309017,0.951057,-0.951057,-0.309017,0,0)" xlink:href="#point"/><use id="use18" width="1235" height="650" x="0" y="0" transform="scale(-1,-1)" xlink:href="#point"/></g><g id="row5"><use id="use21" width="1235" height="650" x="-.252" y="0" xlink:href="#star"/><use id="use23" width="1235" height="650" x="-.126" y="0" xlink:href="#star"/><use id="use25" width="1235" height="650" x="0" y="0" xlink:href="#star"/><use id="use27" width="1235" height="650" x=".126" y="0" xlink:href="#star"/><use id="use29" width="1235" height="650" x=".252" y="0" xlink:href="#star"/></g><g id="row6"><use id="use32" width="1235" height="650" x="-.063" y="0" xlink:href="#row5"/><use id="use34" width="1235" height="650" x=".315" y="0" xlink:href="#star"/></g><g id="rowx4"><use id="use37" width="1235" height="650" x="0" y="0" xlink:href="#row6"/><use id="use39" width="1235" height="650" x="0" y=".054" xlink:href="#row5"/><use id="use41" width="1235" height="650" x="0" y=".108" xlink:href="#row6"/><use id="use43" width="1235" height="650" x="0" y=".162" xlink:href="#row5"/></g><g id="union"><use id="use46" width="1235" height="650" x="0" y="-.216" xlink:href="#rowx4"/><use id="use48" width="1235" height="650" x="0" y="0" xlink:href="#rowx4"/><use id="use50" width="1235" height="650" x="0" y=".216" xlink:href="#row6"/></g><rect id="stripe" width="1235" height="50" x="0" y="0"/><clipPath id="border"><rect id="rect3875" width="30" height="15" x="-15" y="-7.5"/></clipPath><clipPath id="clipPath4145"><rect id="rect4147" width="30" height="15" x="-15" y="-7.5"/></clipPath><rect id="rect4143" width="1235" height="50" x="0" y="0" fill="#bf0a30"/><g id="g4135"><use id="use4137" width="1235" height="650" x="0" y="-.216" xlink:href="#rowx4"/><use id="use4139" width="1235" height="650" x="0" y="0" xlink:href="#rowx4"/><use id="use4141" width="1235" height="650" x="0" y=".216" xlink:href="#row6"/></g><g id="g4125"><use id="use4127" width="1235" height="650" x="0" y="0" xlink:href="#row6"/><use id="use4129" width="1235" height="650" x="0" y=".054" xlink:href="#row5"/><use id="use4131" width="1235" height="650" x="0" y=".108" xlink:href="#row6"/><use id="use4133" width="1235" height="650" x="0" y=".162" xlink:href="#row5"/></g><g id="g4119"><use id="use4121" width="1235" height="650" x="-.063" y="0" xlink:href="#row5"/><use id="use4123" width="1235" height="650" x=".315" y="0" xlink:href="#star"/></g><g id="g4107"><use id="use4109" width="1235" height="650" x="-.252" y="0" xlink:href="#star"/><use id="use4111" width="1235" height="650" x="-.126" y="0" xlink:href="#star"/><use id="use4113" width="1235" height="650" x="0" y="0" xlink:href="#star"/><use id="use4115" width="1235" height="650" x=".126" y="0" xlink:href="#star"/><use id="use4117" width="1235" height="650" x=".252" y="0" xlink:href="#star"/></g><g id="g4095"><use id="use4097" width="1235" height="650" x="0" y="0" transform="matrix(-0.309017,-0.951057,0.951057,-0.309017,0,0)" xlink:href="#point"/><use id="use4099" width="1235" height="650" x="0" y="0" transform="matrix(0.809017,-0.587785,0.587785,0.809017,0,0)" xlink:href="#point"/><use id="use4101" width="1235" height="650" x="0" y="0" transform="matrix(0.809017,0.587785,-0.587785,0.809017,0,0)" xlink:href="#point"/><use id="use4103" width="1235" height="650" x="0" y="0" transform="matrix(-0.309017,0.951057,-0.951057,-0.309017,0,0)" xlink:href="#point"/><use id="use4105" width="1235" height="650" x="0" y="0" transform="scale(-1,-1)" xlink:href="#point"/></g><polygon id="polygon4093" fill="#fff" points="-.162 0 0 .5 .162 0 -.162 0" transform="scale(6.16e-2,6.16e-2)"/></defs><g id="g4273"><g id="g3877" clip-path="url(#border)" transform="matrix(41.16667,0,0,43.33333,617.5,325)"><circle id="circle3879" cx="0" cy="0" r="20" fill="#00247d"/><path id="diags_white" stroke="#fff" stroke-width="3" d="M -20,-10 L 20,10 M -20,10 L 20,-10"/><path id="diags_red" stroke="#cf142b" stroke-width="2" d="M -20,-10 L 20,10 M -20,10 L 20,-10"/><path id="eraser_white" fill="#fff" stroke="none" d="M 0,0 L 20,10 L 17,10 L -3,0 M 0,0 L 20,-10 L 23,-10 L 3,0 M 0,0 L -20,10 L -23,10 L -3,0 M 0,0 L -20,-10 L -17,-10 L 3,0"/><path id="cross_white" stroke="#fff" stroke-width="5" d="M -20,0 L 20,0 M 0,-10 L 0,10"/><path id="cross_red" stroke="#cf142b" stroke-width="3" d="M -20,0 L 20,0 M 0,-10 L 0,10"/></g><path id="rect53" fill="#fff" d="M 0,0 L 0,650 L 1235,0 L 0,0 z"/><path id="use55" fill="#bf0a30" d="M 0,0 L 0,50 L 1140,50 L 1235,0 L 0,0 z"/><path id="use57" fill="#bf0a30" d="M 0,100 L 0,150 L 950,150 L 1045,100 L 0,100 z"/><path id="use59" fill="#bf0a30" d="M 0,200 L 0,250 L 760,250 L 855,200 L 0,200 z"/><path id="use61" fill="#bf0a30" d="M 0,300 L 0,350 L 570,350 L 665,300 L 0,300 z"/><path id="use63" fill="#bf0a30" d="M 0,400 L 0,450 L 380,450 L 475,400 L 0,400 z"/><path id="use65" fill="#bf0a30" d="M 0,500 L 0,550 L 190,550 L 285,500 L 0,500 z"/><path id="use67" fill="#bf0a30" d="M 0,600 L 0,650 L 95,600 L 0,600 z"/><rect id="rect69" width="494" height="350" x="0" y="0" fill="#002868" fill-opacity="1"/><g id="use71" fill="#fff" transform="matrix(650,0,0,650,247,175)"><use id="use3783" width="1" height="1" x="0" y="-.216" fill="#fff" xlink:href="#rowx4"/><use id="use3785" width="1" height="1" x="0" y="0" fill="#fff" xlink:href="#rowx4"/><use id="use3787" width="1" height="1" x="0" y=".216" fill="#fff" xlink:href="#row6"/></g></g></svg>